<?xml version="1.0" encoding="utf-8"?>
<!-- Generator: Adobe Illustrator 18.0.0, SVG Export Plug-In . SVG Version: 6.00 Build 0)  -->
<!DOCTYPE svg PUBLIC "-//W3C//DTD SVG 1.1//EN" "http://www.w3.org/Graphics/SVG/1.1/DTD/svg11.dtd">
<svg xmlns="http://www.w3.org/2000/svg" xmlns:xlink="http://www.w3.org/1999/xlink" version="1.1" id="Слой_1" x="0px" y="0px" viewBox="101 0 817 768" enable-background="new 101 0 817 768" xml:space="preserve">
<path fill="#FED530" stroke="" stroke-width="2" stroke-linecap="round" stroke-linejoin="round" stroke-miterlimit="10" d="  M550.8,556.8c0,0-20,4.9-24.6,14.1c0,0-2.3,2.1-3,3.2c-0.8,1.2,9.6,49.4,9.3,62.1c0,0,58.1,12.3,110.1,7.7c2.7-0.2,8.1,0.4,8.5,1.6  c0,0-1.5,0.8-5.4,2.7c0,0-39.7,9.6-38.9,23.1c0,0,3.1,4.6,1.5,6.2c0,0-6.2-0.4-7.3-2.3c0,0-68.5-5.4-77.8,6.2c0,0,1.9,2.3,0.8,3.1  c0,0-5.4,0.4-6.2-2.3c0,0-13.9,2.3-27-11.9c0,0-6.5-6.2,0-22.3c0,0,2.3-11.6,1.2-14.6c-1.2-3.1-2.3,10-5.4,12.7c0,0-3.9,2.3-5.4,1.9  c0,0-4.2,1.9-4.2,5.4c0,0-6.2,1.5-1.5-11.9c0,0-1.2-5.4,15.4-28.9c0,0,9.2-20,7.7-29.3c0,0-7.3-1.9-16.6,7.7c0,0-14.6,10.8-36.2,7.3  c0,0-4.6,11.9,0.4,27.7c0,0,6.5,25.8,29.3,53.9c0,0,6.2,9.6,3.1,12.7c0,0,15,13.1,42,8.5c0,0,34.7-8.1,48.5,0c0,0-3.5,2.3-5,1.9  c-1.5-0.4-1.5-0.4-1.5-0.4s0.8,14.2,26.2,20.8c0,0,10.4,2.3,11.6,6.2c0,0-8.5,2.3-12.7,1.5c0,0-50.1,3.5-47.8,17.3  c0,0-2.3,4.2,4.2,9.2c0,0,4.2,3.1,3.9,5c0,0-1.2,0.8-8.9-1.2c0,0-60.1-5-76.2-34.3c0,0-6.5-14.1-9.2-16.1c-2.6-2,3.4,9.7,2.3,13.6  c0,0-2,4-3.5,4.5c0,0-2.5,3.9-0.7,6.8c0,0-4.4,4.6-7.7-9.2c0,0-4.9-5.2-3.6-34c0,0-18.3-54.2-21.6-64.7c0,0-10-18.9-10-21.6  c0,0-10.8-10.4-13.1-16.9c0,0-68.9-25.4-97-67c0,0-50.3-41-68.2-86.6l12.5,1.1c0,0-13-3.3-13-6.5c0,0,6,0.5,10.9-1.1  c0,0-14.7-4.3-17.4-9.8c0,0-7.6-9.8-9.8-19.6c0,0-7.6-27.2-6-39.7c0,0-1.1-29.9-12-33.2c0,0-20.7-13-24.5-25c-3.8-12,0-1.6,0-1.6  l-1.1-7.6c0,0-53.3-47.3-56-63.6c0,0-5.4-18.5-2.2-25.5c0,0,16.3-3.8,27.2,3.3c0,0-12-15.2-8.7-26.1c0,0,25.5,4.3,71.2,30.4  c0,0,16.9,9.8,27.2,8.2c0,0-19-6-22.8-14.1c0,0,17.9-22.8,63.6,0.5c0,0,9.8,4.9,15.8,1.1c0,0-17.9-7.1-18.5-10.9  c0,0,15.2-7.1,33.2,6c0,0,65.2,26.1,83.2,26.6c0,0,153.8-13,206.5,10.9c0,0,71.7,30.4,73.9,31c0,0,10.5,2.7,6.1-19.6l-8.6-21.7v6  c0,0-13.4-26.7-13.4-35.4c0,0-0.8,4.3,0.3,8.7c0,0-9.1-28.3-5.3-49.5c0,0-2.6,2.2-3.2,4.3c0,0,3-67.9,22.5-85.9l-4.5,2.2l17.9-22.3  l-8.1,6.5c0,0,27.2-36.4,52.7-45.1l-6-0.5c0,0,10.3-5.4,17.9-7.1l-4.9-0.5c0,0,23.4-9.8,53.8-4.9c0,0,45.9,14.1,55.1,25.5  c0,0,16.6,12.5,27.5,47.3c0,0,14.1,17.9,25.5,37.5c0,0,11.4,17.4,21.7,22.8c0,0,3.8,7.6,1.1,14.1c0,0-3.3,7.6-25-5.4  c0,0-23.9-8.7-31.5-9.2c0,0-15.2-2.7-25-6c0,0-46.2,1.6-54.9-10.9c0,0-19.2-8.7-23.6,9.8c0,0-12.8,36.4,5.7,73.9  c0,0,51.6,72.3,37.5,114.1c0,0-8.7,36.4-4.9,54.9c0,0,2.7,21.7-4.9,40.8c0,0-7.6,19.6-8.7,27.7c0,0-9.1,21.4-22.9,29.8  c0,0-28.2,32.2-52.1,44.2c0,0-26.6,25.5-35.9,27.2c0,0-2-6.5,4.5-14.1c0,0-9.2,6.5-11.8,6.5V530C658.6,530,596.2,546.5,550.8,556.8z  "/>
</svg>
